<?xml version="1.0" standalone="no"?>
<!DOCTYPE svg PUBLIC "-//W3C//DTD SVG 20010904//EN"
 "http://www.w3.org/TR/2001/REC-SVG-20010904/DTD/svg10.dtd">
<svg version="1.0" xmlns="http://www.w3.org/2000/svg"
 width="1280.000000pt" height="640.000000pt" viewBox="0 0 1280.000000 640.000000"
 preserveAspectRatio="xMidYMid meet">
<metadata>
Created by potrace 1.15, written by Peter Selinger 2001-2017
</metadata>
<g transform="translate(0.000000,640.000000) scale(0.100000,-0.100000)"
fill="#f5877c" stroke="none">
<path d="M7973 5750 c-41 -17 -26 -36 40 -55 79 -22 107 -36 187 -95 55 -41
101 -61 300 -130 375 -131 759 -308 747 -344 -2 -6 -23 -24 -48 -41 -54 -36
-126 -109 -191 -195 -27 -35 -87 -104 -133 -152 -59 -62 -131 -158 -239 -321
-86 -128 -177 -257 -204 -287 -27 -30 -65 -80 -85 -110 -19 -30 -59 -77 -87
-105 -29 -27 -109 -117 -178 -200 -204 -244 -346 -398 -454 -492 -116 -101
-384 -381 -550 -575 -62 -73 -138 -159 -169 -193 -59 -64 -152 -176 -234 -281
-27 -35 -69 -87 -92 -116 -44 -57 -127 -197 -120 -204 12 -13 44 17 89 85 76
112 269 365 341 447 34 38 91 104 126 145 35 41 224 238 420 439 397 406 540
556 614 645 27 33 73 83 101 110 78 76 293 349 412 524 122 179 196 279 258
348 23 26 88 109 143 183 94 126 191 228 292 309 39 30 42 36 39 75 -3 46 10
37 -203 137 -136 63 -540 226 -655 264 -108 35 -171 67 -240 120 -30 23 -69
49 -87 59 -34 17 -104 20 -140 6z"/>
<path d="M7772 5620 c-80 -130 -204 -313 -289 -426 -49 -66 -158 -220 -243
-344 -197 -289 -345 -474 -545 -680 -262 -271 -319 -333 -362 -395 -23 -33
-87 -109 -143 -170 -178 -191 -304 -348 -312 -389 -11 -64 75 7 160 132 81
118 242 299 718 807 270 289 419 481 616 797 70 111 186 284 258 383 187 259
199 277 206 313 11 54 -22 40 -64 -28z"/>
<path d="M4460 3653 c-176 -18 -404 -61 -565 -107 -44 -13 -258 -82 -475 -154
-921 -305 -1239 -398 -1535 -447 -55 -9 -230 -40 -390 -70 -356 -66 -460 -81
-691 -100 -190 -15 -208 -19 -236 -43 -47 -40 -6 -41 255 -7 271 36 419 60
677 110 124 24 293 56 375 70 195 33 434 92 615 150 80 26 246 78 370 117 124
38 328 103 453 143 125 41 245 77 265 81 20 4 46 13 57 20 51 33 406 123 625
159 131 22 522 31 675 16 216 -21 394 -68 529 -139 127 -67 290 -244 317 -345
34 -129 78 -260 136 -401 60 -147 163 -425 163 -440 0 -22 -118 33 -170 80
-59 52 -190 100 -360 131 -69 12 -149 17 -295 17 -178 -1 -214 -3 -330 -28
-135 -28 -342 -84 -430 -117 -77 -28 -593 -182 -834 -249 -119 -33 -243 -69
-276 -80 -147 -51 -393 -121 -456 -130 -124 -18 -852 -204 -1334 -341 -304
-87 -355 -104 -428 -142 -54 -29 -155 -53 -167 -40 -25 26 -126 363 -201 671
-63 259 -90 352 -101 352 -4 0 -8 -7 -8 -16 0 -74 153 -674 236 -927 25 -75
42 -111 57 -118 36 -20 209 -3 422 40 322 66 1139 263 1549 376 149 40 327 88
396 105 69 17 199 55 290 85 91 29 264 85 386 124 218 70 307 110 219 96 -22
-3 -80 -19 -130 -35 -265 -85 -909 -271 -1330 -384 -154 -41 -338 -91 -410
-111 -71 -19 -202 -51 -290 -70 -88 -20 -257 -57 -375 -84 -118 -27 -255 -57
-305 -66 -49 -9 -108 -20 -130 -25 -48 -11 -58 -5 -19 11 111 44 902 255 1290
344 109 25 309 77 444 115 503 142 1076 290 1329 345 113 24 125 25 140 10 16
-14 25 -14 87 -1 91 19 598 151 649 169 l39 14 -41 6 c-22 4 -46 14 -53 22
-18 22 -53 19 -206 -21 -169 -43 -558 -140 -599 -149 -58 -12 -10 12 105 55
134 49 416 123 545 142 56 8 182 13 330 13 223 -1 244 -2 300 -23 32 -12 71
-22 85 -22 14 0 43 -9 66 -19 49 -22 163 -103 164 -115 0 -14 -236 1 -325 21
-59 13 -120 18 -230 17 -137 0 -168 -4 -349 -43 -109 -23 -246 -57 -305 -76
-229 -74 -488 -146 -663 -185 -101 -22 -325 -83 -498 -135 -173 -51 -403 -119
-510 -150 -222 -64 -896 -232 -1105 -275 -77 -16 -216 -47 -310 -70 -180 -44
-403 -81 -598 -101 -99 -10 -121 -9 -132 2 -29 28 -130 429 -180 711 -34 186
-39 207 -50 196 -14 -14 52 -413 96 -579 72 -276 81 -337 53 -346 -6 -2 -26 8
-43 22 -29 25 -31 25 -31 7 0 -12 18 -34 42 -54 41 -32 45 -33 128 -31 192 4
454 52 901 163 108 27 253 59 322 70 69 11 212 38 318 60 220 45 856 168 1029
199 448 80 1287 194 1925 261 94 10 638 15 665 7 8 -3 28 -8 43 -12 36 -7 85
-101 64 -123 -8 -8 -69 -16 -172 -22 -88 -6 -231 -19 -320 -30 -203 -25 -446
-47 -650 -60 -88 -5 -227 -21 -310 -34 -316 -51 -415 -66 -575 -86 -194 -26
-499 -75 -800 -130 -238 -44 -432 -72 -650 -95 -80 -8 -233 -31 -340 -50 -282
-50 -465 -75 -630 -85 -167 -11 -300 -29 -520 -71 -270 -52 -340 -60 -555 -69
-135 -5 -241 -14 -298 -26 -71 -15 -95 -16 -129 -7 -49 13 -75 4 -80 -29 -5
-33 -36 -34 -70 -1 l-30 28 7 135 c5 100 11 142 23 160 15 22 17 74 17 480 0
407 -2 461 -17 507 -20 56 -18 67 24 132 36 58 37 98 2 107 -33 8 -72 -12 -91
-50 -13 -25 -15 -126 -16 -730 -1 -386 2 -741 6 -789 8 -76 12 -90 32 -103 42
-27 127 -45 245 -50 108 -6 126 -4 304 35 159 34 207 41 302 41 138 0 332 24
439 55 44 13 96 26 115 29 19 3 112 19 205 35 94 17 222 35 286 40 64 6 260
33 435 60 592 92 1507 220 1934 271 96 11 270 34 385 50 116 15 253 31 305 35
52 3 293 26 534 50 242 25 441 43 444 41 2 -3 19 -50 37 -104 73 -217 176
-386 343 -560 34 -36 62 -68 62 -73 0 -22 109 -30 640 -44 316 -8 647 -20 735
-25 185 -12 512 -24 1155 -45 484 -15 869 -40 1355 -86 76 -7 207 -9 355 -5
129 3 492 9 805 12 530 5 582 4 745 -14 149 -17 200 -19 340 -12 160 9 233 21
245 40 8 13 -58 122 -110 182 -81 94 -177 242 -210 326 -26 65 -55 52 -55 -23
0 -45 -14 -51 -135 -58 -105 -6 -135 -13 -135 -29 0 -10 175 -4 260 8 32 4 40
0 93 -51 31 -31 54 -61 51 -67 -5 -7 -43 -9 -108 -6 -101 5 -152 -1 -128 -16
7 -4 68 -12 136 -18 l124 -11 22 -39 21 -38 -27 -10 c-15 -6 -113 -11 -218
-12 -312 -2 -1567 20 -1751 32 -93 5 -327 14 -520 20 -438 12 -844 27 -1134
41 -123 6 -276 8 -340 5 -64 -4 -188 -2 -276 3 -88 6 -338 15 -555 21 -374 10
-870 34 -935 46 -120 22 -271 105 -337 186 -65 80 -91 144 -96 238 -7 132 -14
127 248 145 369 26 713 57 734 66 30 13 -397 2 -619 -16 -99 -8 -219 -15 -266
-15 -96 0 -113 9 -107 57 3 25 8 29 48 35 25 4 124 21 220 37 96 17 258 38
360 47 244 21 1106 30 1490 15 279 -11 516 -20 1070 -41 151 -6 354 -17 450
-26 206 -17 684 -30 1400 -39 546 -7 940 -19 978 -31 14 -4 22 -14 22 -28 0
-38 -30 -112 -55 -136 l-23 -22 -314 26 c-758 62 -1293 86 -2304 102 -321 5
-423 4 -429 -5 -4 -7 -5 -14 -3 -16 2 -2 251 -9 553 -15 578 -11 1364 -35
1500 -46 131 -11 117 -21 -34 -26 -78 -2 -146 -9 -152 -15 -12 -12 272 -23
590 -23 231 0 407 -12 501 -34 121 -28 105 -58 -32 -63 -118 -5 -145 -10 -129
-26 7 -7 55 -13 117 -15 128 -5 185 12 210 61 9 18 23 40 32 49 11 14 13 31 8
78 -6 53 -4 65 19 103 25 44 33 87 15 87 -5 0 -19 17 -29 39 -11 21 -40 54
-63 72 -24 19 -79 72 -123 118 -44 46 -103 100 -132 120 -129 89 -248 188
-277 230 -50 72 -85 109 -150 159 -34 25 -95 76 -136 112 -98 87 -168 140
-186 140 -23 0 -16 -27 18 -66 39 -44 200 -183 280 -242 31 -23 74 -63 95 -89
98 -121 171 -187 321 -296 90 -65 275 -254 256 -261 -8 -3 -155 -1 -327 4
-526 16 -1249 30 -1502 29 -132 -1 -350 5 -485 14 -135 9 -445 25 -690 37
-245 11 -508 26 -585 32 -201 17 -1474 17 -1660 0 -240 -22 -325 -33 -480 -62
-82 -16 -185 -31 -229 -35 -105 -10 -116 -21 -116 -117 1 -94 16 -211 35 -269
9 -26 32 -62 55 -84 34 -33 40 -46 40 -79 0 -33 7 -47 37 -78 42 -43 36 -62
-16 -52 -24 5 -35 15 -45 39 -8 18 -30 50 -49 71 -44 49 -116 197 -121 249 -3
22 -10 68 -17 103 -10 49 -10 71 -1 94 8 21 8 37 1 50 -9 16 -5 20 21 29 45
16 52 37 35 100 -8 30 -24 90 -35 133 -27 100 -51 149 -90 176 -29 21 -42 51
-55 135 l-7 40 20 -31 c22 -35 42 -51 42 -35 0 6 -25 80 -55 165 -119 335
-189 498 -220 509 -24 10 -37 54 -45 149 -5 74 -11 94 -41 142 -159 263 -418
408 -822 461 -108 14 -433 19 -537 8z m955 -1403 c3 -5 4 -10 1 -10 -15 0
-228 -33 -368 -57 -140 -23 -184 -25 -166 -8 5 5 302 69 363 78 60 8 164 7
170 -3z m628 -46 c33 -22 50 -54 28 -54 -5 0 -44 16 -87 36 -59 27 -75 38 -64
45 22 14 80 1 123 -27z m-168 -50 c28 -11 50 -24 50 -29 0 -6 -123 -15 -305
-22 -319 -12 -494 -27 -795 -69 -183 -25 -648 -102 -944 -155 -90 -16 -169
-29 -175 -28 -6 0 8 9 32 20 24 10 85 24 135 30 51 6 162 26 247 46 462 104
827 171 1135 207 200 24 199 24 390 21 150 -2 188 -5 230 -21z m192 -110 c63
-47 25 -74 -50 -34 -32 17 -56 20 -175 20 -227 0 -1082 -92 -1732 -186 -291
-42 -1067 -183 -1152 -210 -10 -3 -18 -1 -18 4 0 15 54 27 605 136 687 136
841 161 1405 226 590 69 567 67 867 66 209 -1 223 -2 250 -22z m73 -288 c13
-6 23 -15 22 -20 -1 -5 -87 -10 -190 -11 -104 -2 -198 -6 -210 -9 -12 -4 -22
-3 -22 2 0 12 27 19 160 42 108 19 194 18 240 -4z m-455 -56 c-11 -5 -117 -23
-235 -40 -118 -17 -258 -37 -310 -46 -77 -12 -458 -34 -585 -33 l-30 0 27 14
c41 23 423 72 618 80 96 4 229 13 295 19 150 16 248 18 220 6z m-367 -127
c-10 -2 -28 -2 -40 0 -13 2 -5 4 17 4 22 1 32 -1 23 -4z m-878 -33 c18 -5 21
-9 10 -13 -33 -13 -139 -36 -213 -46 -103 -14 -465 -15 -451 -1 10 10 296 55
399 63 90 6 229 5 255 -3z m-681 -106 c12 -10 -71 -26 -266 -49 -120 -14 -292
-35 -383 -46 -190 -23 -278 -37 -520 -84 -206 -40 -298 -51 -480 -60 -74 -3
-164 -8 -199 -12 -42 -4 -62 -2 -58 5 9 13 35 17 247 42 96 11 252 33 345 50
94 16 197 32 230 35 134 15 578 77 685 96 175 32 376 43 399 23z m-1969 -254
c24 -15 2 -28 -83 -49 -131 -34 -284 -52 -492 -60 -111 -4 -205 -10 -211 -13
-9 -6 -429 -60 -479 -62 -11 -1 -22 4 -25 9 -8 15 71 31 220 44 74 7 198 21
275 32 77 11 178 24 225 29 47 5 119 18 160 29 138 38 377 62 410 41z m4778
-174 c82 -35 303 -73 530 -93 34 -3 62 -10 62 -16 0 -13 -153 -3 -365 24 -246
31 -335 56 -335 94 0 22 42 19 108 -9z m1742 -116 c107 -5 296 -12 420 -15
543 -13 963 -34 977 -49 9 -10 -602 -1 -967 14 -124 5 -346 14 -495 20 -404
16 -478 21 -468 31 18 18 180 18 533 -1z m2200 -80 c74 -5 225 -14 335 -20
341 -18 312 -38 -55 -39 -275 -1 -710 29 -855 58 -56 12 405 12 575 1z m2138
-37 c38 -10 5 -23 -60 -23 -82 0 -107 14 -38 21 30 3 60 6 65 7 6 1 21 -1 33
-5z"/>
<path d="M5715 3018 c12 -41 112 -245 123 -252 17 -10 -17 79 -83 218 -26 55
-53 78 -40 34z"/>
<path d="M7655 2874 c-273 -16 -305 -20 -305 -41 0 -14 13 -15 108 -9 412 25
524 28 822 22 655 -12 955 -28 1435 -75 214 -21 395 -34 760 -53 248 -14 823
-17 868 -5 33 9 35 22 5 31 -13 3 -248 11 -523 16 -494 10 -846 32 -1220 76
-217 25 -321 33 -545 44 -293 14 -1135 10 -1405 -6z"/>
<path d="M284 2578 c-25 -40 -42 -334 -24 -398 6 -19 19 -114 30 -210 11 -96
29 -238 40 -315 11 -77 26 -211 34 -298 9 -87 20 -166 25 -175 19 -33 24 16
17 161 -7 146 -13 212 -42 497 -11 108 -17 260 -18 443 -1 264 -2 279 -20 293
-24 17 -33 18 -42 2z"/>
<path d="M546 2440 c21 -194 126 -858 144 -916 21 -66 7 69 -61 586 -24 185
-57 343 -75 367 -12 16 -13 11 -8 -37z"/>
<path d="M155 2388 c-11 -46 -19 -134 -23 -234 -7 -258 29 -847 64 -1026 8
-39 32 -35 40 7 3 19 1 105 -6 192 -7 87 -15 369 -20 628 -4 259 -11 478 -15
488 -13 31 -23 18 -40 -55z"/>
<path d="M8810 1591 c-44 -13 57 -21 251 -21 162 0 216 8 173 24 -22 8 -393 6
-424 -3z"/>
<path d="M8085 1580 c8 -13 505 -13 525 0 10 6 -78 10 -258 10 -180 0 -271 -3
-267 -10z"/>
<path d="M6555 1511 c73 -13 861 -35 882 -26 37 17 -88 24 -507 29 -241 3
-403 1 -375 -3z"/>
<path d="M7520 1491 c0 -6 1 -11 3 -11 1 0 196 -5 432 -10 410 -10 643 -6 614
10 -24 13 -1049 23 -1049 11z"/>
<path d="M8675 1470 c28 -12 65 -12 65 0 0 6 -19 10 -42 9 -33 0 -38 -2 -23
-9z"/>
<path d="M9170 1370 c0 -5 25 -10 56 -10 34 0 53 4 49 10 -3 6 -28 10 -56 10
-27 0 -49 -4 -49 -10z"/>
<path d="M9306 1372 c-9 -15 30 -22 124 -22 50 0 80 4 75 9 -15 13 -191 25
-199 13z"/>
<path d="M7663 1363 c-35 -2 -63 -8 -63 -13 0 -12 704 -13 765 -1 87 16 -469
27 -702 14z"/>
<path d="M9070 1361 c0 -6 10 -17 23 -25 27 -17 205 -29 262 -17 35 7 28 9
-60 15 -110 9 -181 19 -207 31 -11 4 -18 3 -18 -4z"/>
<path d="M9645 1362 l-20 -9 20 -6 c39 -11 372 -20 379 -9 3 5 -14 12 -42 16
-87 11 -317 16 -337 8z"/>
<path d="M8800 1353 c-54 -8 -70 -14 -70 -25 0 -8 34 -9 123 -4 137 7 176 14
155 27 -13 9 -159 10 -208 2z"/>
<path d="M6918 1345 c-14 -14 -9 -25 16 -36 18 -9 30 -7 55 6 26 13 51 15 129
11 70 -4 89 -3 67 4 -39 13 -258 25 -267 15z"/>
<path d="M10530 1331 c-110 -12 -8 -21 235 -21 224 0 302 8 243 23 -28 8 -401
6 -478 -2z"/>
<path d="M7570 1300 c21 -13 423 -13 415 0 -4 6 -87 10 -218 10 -141 0 -207
-4 -197 -10z"/>
<path d="M6735 1291 c-3 -5 4 -13 16 -16 28 -9 111 4 104 16 -8 12 -112 12
-120 0z"/>
<path d="M9415 1159 c66 -4 323 -16 570 -24 248 -9 505 -19 573 -22 84 -4 122
-3 122 5 0 13 -69 18 -450 32 -415 15 -979 22 -815 9z"/>
<path d="M11215 1123 c-44 -2 -84 -8 -89 -13 -7 -7 72 -10 214 -10 132 0 220
4 215 9 -12 11 -227 19 -340 14z"/>
<path d="M11932 1100 c-56 -8 -70 -15 -58 -27 12 -12 148 -7 181 7 28 11 28
13 10 20 -24 10 -62 10 -133 0z"/>
</g>
</svg>
